<svg width="16" height="17" viewBox="0 0 16 17" fill="none" xmlns="http://www.w3.org/2000/svg">
<path d="M12 8.3125C12.3438 7.5 12.5 6.90625 12.5 6.5C12.5 4.03125 10.4688 2 8 2C5.5 2 3.5 4.03125 3.5 6.5C3.5 6.90625 3.625 7.5 3.96875 8.3125C4.28125 9.0625 4.75 9.9375 5.28125 10.8125C6.1875 12.25 7.21875 13.625 8 14.625C8.75 13.625 9.78125 12.25 10.6875 10.8125C11.2188 9.9375 11.6875 9.0625 12 8.3125ZM8.71875 16.125C8.34375 16.5938 7.625 16.5938 7.25 16.125C5.65625 14.0938 2 9.25 2 6.5C2 3.1875 4.6875 0.5 8 0.5C11.3125 0.5 14 3.1875 14 6.5C14 9.25 10.3438 14.0937 8.71875 16.125Z" fill="#6BC79D"/>
</svg>
