<svg width="25" height="25" viewBox="0 0 25 25" fill="none" xmlns="http://www.w3.org/2000/svg">
<path d="M12.875 5.5625L14.9062 9.71875L19.375 10.375C19.75 10.4375 20.0625 10.6875 20.1875 11.0625C20.3125 11.4062 20.2188 11.8125 19.9375 12.0625L16.6875 15.2812L17.4688 19.8438C17.5312 20.2188 17.375 20.5938 17.0625 20.8125C16.75 21.0625 16.3438 21.0625 16 20.9062L12 18.75L7.96875 20.9062C7.65625 21.0625 7.25 21.0625 6.9375 20.8125C6.625 20.5938 6.46875 20.2188 6.53125 19.8438L7.28125 15.2812L4.03125 12.0625C3.78125 11.8125 3.6875 11.4062 3.78125 11.0625C3.90625 10.6875 4.21875 10.4375 4.59375 10.375L9.09375 9.71875L11.0938 5.5625C11.25 5.21875 11.5938 5 12 5C12.375 5 12.7188 5.21875 12.875 5.5625Z" fill="#32293F"/>
</svg>
