<svg width="14" height="14" viewBox="0 0 14 14" fill="none" xmlns="http://www.w3.org/2000/svg">
<path d="M4 14C1.78125 14 0 12.2188 0 10C0 8.8125 0.5 7.75 1.34375 7C0.5 6.28125 0 5.21875 0 4C0 1.8125 1.78125 0 4 0C5.1875 0 6.25 0.53125 7 1.375C7.71875 0.53125 8.78125 0 10 0C12.1875 0 14 1.8125 14 4C14 5.21875 13.4688 6.28125 12.625 7C13.4688 7.75 14 8.8125 14 10C14 12.2187 12.1875 14 10 14C8.78125 14 7.71875 13.5 7 12.6562C6.25 13.5 5.1875 14 4 14ZM7 4.5C6.09375 4.5 5.28125 5 4.8125 5.75C4.375 6.53125 4.375 7.5 4.8125 8.25C5.28125 9.03125 6.09375 9.5 7 9.5C7.875 9.5 8.6875 9.03125 9.15625 8.25C9.59375 7.5 9.59375 6.53125 9.15625 5.75C8.6875 5 7.875 4.5 7 4.5Z" fill="#32293F"/>
</svg>
