<svg width="25" height="25" viewBox="0 0 25 25" fill="none" xmlns="http://www.w3.org/2000/svg">
<path d="M12 21C9.125 21 6.5 19.5 5.0625 17C3.625 14.5312 3.625 11.5 5.0625 9C6.5 6.53125 9.125 5 12 5C14.8438 5 17.4688 6.53125 18.9062 9C20.3438 11.5 20.3438 14.5312 18.9062 17C17.4688 19.5 14.8438 21 12 21ZM9.125 15.1875C8.9375 14.9688 8.625 14.9688 8.40625 15.125C8.1875 15.3125 8.1875 15.625 8.34375 15.8438C9.0625 16.6562 10.25 17.5 12 17.5C13.7188 17.5 14.9063 16.6562 15.625 15.8437C15.7813 15.625 15.7813 15.3125 15.5625 15.125C15.3438 14.9687 15.0313 14.9687 14.8438 15.1875C14.3125 15.8437 13.3438 16.5 12 16.5C10.625 16.5 9.6875 15.8437 9.125 15.1875ZM8.5 11.5C8.5 12.0625 8.9375 12.5 9.5 12.5C10.0625 12.5 10.5 12.0625 10.5 11.5C10.5 10.9688 10.0625 10.5 9.5 10.5C8.9375 10.5 8.5 10.9688 8.5 11.5ZM14.5 10.5C13.9375 10.5 13.5 10.9687 13.5 11.5C13.5 12.0625 13.9375 12.5 14.5 12.5C15.0625 12.5 15.5 12.0625 15.5 11.5C15.5 10.9687 15.0625 10.5 14.5 10.5Z" fill="#32293F"/>
</svg>
