<svg width="30" height="24" viewBox="0 0 30 24" fill="none" xmlns="http://www.w3.org/2000/svg">
<path d="M18 4.5H3V15H18V4.5ZM3 1.5H18C19.6406 1.5 21 2.85938 21 4.5V15C21 16.6875 19.6406 18 18 18H12.4688L12.9844 19.5H16.5C17.2969 19.5 18 20.2031 18 21C18 21.8438 17.2969 22.5 16.5 22.5H4.5C3.65625 22.5 3 21.8438 3 21C3 20.2031 3.65625 19.5 4.5 19.5H7.96875L8.48438 18H3C1.3125 18 0 16.6875 0 15V4.5C0 2.85938 1.3125 1.5 3 1.5ZM24.75 1.5H27.75C28.9688 1.5 30 2.53125 30 3.75V20.25C30 21.5156 28.9688 22.5 27.75 22.5H24.75C23.4844 22.5 22.5 21.5156 22.5 20.25V3.75C22.5 2.53125 23.4844 1.5 24.75 1.5ZM25.5 4.5C25.0781 4.5 24.75 4.875 24.75 5.25C24.75 5.67188 25.0781 6 25.5 6H27C27.375 6 27.75 5.67188 27.75 5.25C27.75 4.875 27.375 4.5 27 4.5H25.5ZM24.75 8.25C24.75 8.67188 25.0781 9 25.5 9H27C27.375 9 27.75 8.67188 27.75 8.25C27.75 7.875 27.375 7.5 27 7.5H25.5C25.0781 7.5 24.75 7.875 24.75 8.25ZM26.25 15.75C25.4062 15.75 24.75 16.4531 24.75 17.25C24.75 18.0938 25.4062 18.75 26.25 18.75C27.0469 18.75 27.75 18.0938 27.75 17.25C27.75 16.4531 27.0469 15.75 26.25 15.75Z" fill="#193154"/>
</svg>
