<svg width="26" height="25" viewBox="0 0 26 25" fill="none" xmlns="http://www.w3.org/2000/svg">
<path d="M10.0938 7.92187C9.85938 8.39062 9.4375 8.67187 8.96875 8.76562L2.54688 9.70312L7.1875 14.3437C7.5625 14.6719 7.70313 15.1875 7.60938 15.6562L6.53125 22.2188L12.25 19.125C12.7188 18.8906 13.2344 18.8906 13.7031 19.125L19.4219 22.2187L18.3438 15.6562C18.25 15.1875 18.3906 14.6719 18.7656 14.3437L23.4062 9.70312L16.9844 8.76562C16.4688 8.67187 16.0469 8.39062 15.8594 7.92187L12.9531 2.01562L10.0938 7.92187ZM19.375 23.9062H19.4219L13 20.4375L6.57813 23.9062C6.20313 24.0938 5.73438 24.0469 5.35938 23.8125C5.03125 23.5312 4.84375 23.1094 4.9375 22.6875L6.15625 15.4219L0.953125 10.2656C0.625 9.9375 0.53125 9.51562 0.671875 9.09375C0.8125 8.71875 1.14063 8.39062 1.5625 8.34375L8.73438 7.26562L11.9688 0.65625C12.1562 0.28125 12.5312 0 12.9531 0C13.4219 0 13.7969 0.28125 13.9844 0.65625L17.2188 7.26562L24.3906 8.34375C24.8125 8.39062 25.1406 8.71875 25.2812 9.09375C25.4219 9.51562 25.3281 9.9375 25 10.2656L19.7969 15.4219L21.0156 22.6875C21.1094 23.1094 20.9219 23.5312 20.5938 23.8125C20.2188 24.0469 19.7969 24.0937 19.375 23.9062Z" fill="white"/>
</svg>
